<?xml version="1.0" encoding="UTF-8"?>
<svg width="25px" height="25px" viewBox="0 0 143 163" version="1.1" xmlns="http://www.w3.org/2000/svg" xmlns:xlink="http://www.w3.org/1999/xlink">
    <!-- Generator: Sketch 50.2 (55047) - http://www.bohemiancoding.com/sketch -->
    <title>skute_logo</title>
    <desc>Created with Sketch.</desc>
    <defs></defs>
    <g id="Page-1" stroke="none" stroke-width="1" fill="none" fill-rule="evenodd">
        <g id="skute_logo" transform="translate(71.648058, 81.987804) rotate(-330.000000) translate(-71.648058, -81.987804) translate(-9.351942, 10.987804)" fill="#ff3004">
            <path d="M114.759048,40.1632432 L161.299211,72.2567186 C161.172451,72.774921 160.973142,73.2723954 160.710852,73.7284136 L123.901734,137.540664 L114.759048,40.1632432" id="Fill-1"></path>
            <polygon id="Fill-3" points="123.170511 2.97663476 157.780856 62.9781039 114.648073 33.2340788"></polygon>
            <polygon id="Fill-5" points="118.148889 0.000239170375 109.602535 30.3437846 49.7780517 0.000239170375"></polygon>
            <path d="M108.906708,38.162025 L118.63297,141.766645 C118.483887,141.778604 118.33321,141.784981 118.18333,141.784981 L42.9395329,141.784981 C40.9225294,141.784981 39.0426503,140.699148 38.0349458,138.950015 L0.41264862,73.7282541 C0.24921553,73.4452359 0.111293948,73.1502591 0.000478340749,72.8449182 L108.906708,38.162025" id="Fill-7"></path>
            <path d="M39.5433933,1.13494315 L103.970312,33.8127914 L1.30642831,66.5073816 L38.0342283,2.83464728 C38.4184953,2.1689564 38.9319144,1.59175857 39.5433933,1.13494315" id="Fill-9"></path>
        </g>
    </g>
</svg>