<?xml version="1.0" encoding="UTF-8"?>
<svg width="213px" height="44px" viewBox="0 0 213 44" version="1.1" xmlns="http://www.w3.org/2000/svg" xmlns:xlink="http://www.w3.org/1999/xlink">
    <!-- Generator: Sketch 50.2 (55047) - http://www.bohemiancoding.com/sketch -->
    <title>skute_logo_text</title>
    <desc>Created with Sketch.</desc>
    <defs></defs>
    <g id="skute_logo_text" stroke="none" stroke-width="1" fill="none" fill-rule="evenodd">
        <path d="M30.7552305,13.4070885 C30.0892408,12.6338426 29.2292168,12.004859 28.1722408,11.520859 C27.1167236,11.0375803 25.8832202,10.795941 24.4753777,10.795941 C23.3790113,10.795941 22.3906038,11.027482 21.5108846,11.4920066 C20.630436,11.9558098 20.1905764,12.6720721 20.1905764,13.6386295 C20.1905764,14.4140393 20.5596791,15.0134492 21.3008024,15.4375803 C22.0419257,15.8645967 23.133186,16.3082033 24.5760421,16.7734492 C26.3683058,17.3541049 27.9672647,18.011941 29.3707305,18.7462361 C30.7734668,19.4819738 31.9624736,20.3338426 32.937751,21.2996787 C33.9115695,22.2676787 34.6621757,23.3705639 35.1888401,24.6076131 C35.7155045,25.8468262 35.9781072,27.2396787 35.9781072,28.7868918 C35.9781072,31.4189574 35.3930866,33.6622361 34.2252339,35.5188918 C33.0559223,37.3762689 31.5656517,38.8852525 29.7536928,40.0465639 C27.9417339,41.2071541 25.9430353,42.059023 23.7597853,42.6000066 C21.5750764,43.1417115 19.4465353,43.4129246 17.3727031,43.4129246 C15.7292476,43.4129246 14.0857921,43.2758754 12.4430661,43.0061049 C10.7996106,42.7348918 9.22326473,42.3475475 7.71767568,41.8462361 C6.21208664,41.3427607 4.79257295,40.7238754 3.46278185,39.9881377 C2.13299075,39.2538426 0.978997603,38.4214492 7.29452055e-05,37.4931213 L9.27359692,29.0191541 C9.74263459,29.5615803 10.3094188,30.0441377 10.976138,30.4697115 C11.6399394,30.8967279 12.3351072,31.2530557 13.0587236,31.5437443 C13.7823401,31.8337115 14.5161688,32.0659738 15.2602099,32.2405311 C16.0027921,32.4143672 16.6877476,32.5016459 17.3143469,32.5016459 C18.6835284,32.5016459 19.7791654,32.2787607 20.6012579,31.8337115 C21.4226209,31.3901049 21.8340318,30.7409246 21.8340318,29.889777 C21.8340318,29.1937115 21.4904599,28.5748262 20.8062339,28.0324 C20.1212784,27.4914164 18.8403606,26.9295148 16.962751,26.348859 C15.4753983,25.885777 14.0763092,25.3433508 12.7654839,24.7244656 C11.4546586,24.1063016 10.3196312,23.3604656 9.36186062,22.4905639 C8.40190171,21.619941 7.64910719,20.5747607 7.10201815,19.3557443 C6.55347021,18.1374492 6.27992568,16.657318 6.27992568,14.9160721 C6.27992568,12.7889246 6.72051473,10.8154164 7.60096336,8.99626885 C8.48141199,7.17784262 9.73315171,5.60105574 11.356912,4.2659082 C12.9806723,2.93148197 14.916638,1.88630164 17.1677271,1.13180984 C19.4173572,0.378039344 21.892388,7.21311475e-05 24.5920901,7.21311475e-05 C26.0794428,7.21311475e-05 27.5463709,0.126301639 28.9943332,0.378039344 C30.4415661,0.629777049 31.8107476,0.978170492 33.1033366,1.42249836 C34.3937373,1.86754754 35.5871209,2.3991541 36.6834873,3.01803934 C37.7776654,3.6376459 38.6982339,4.33371148 39.4415455,5.10767869 L30.7552305,13.4070885 Z" id="Fill-1" fill="#ff3004"></path>
        <polygon id="Fill-4" fill="#ff3004" points="64.1504938 42.2518295 55.0534973 24.956223 54.9360555 24.956223 51.8840281 42.2518295 38.6780281 42.2518295 46.0155863 1.16087869 59.1617712 1.16087869 56.3446274 16.8890754 56.5211548 16.8890754 69.6680692 1.16087869 86.2193363 1.16087869 67.555576 21.0099279 80.4092507 42.2518295"></polygon>
        <path d="M120.348939,33.8073639 C119.311658,35.8010689 117.942477,37.4925443 116.240665,38.8853967 C114.538124,40.2782492 112.49274,41.3623803 110.107432,42.1356262 C107.719936,42.9095934 104.980843,43.2962164 101.889425,43.2962164 C99.2283842,43.2962164 96.8036856,43.0062492 94.6124116,42.4255934 C92.4204082,41.8463803 90.5420692,41.0038885 88.9773945,39.9010033 C87.4119904,38.7988393 86.1996411,37.4550361 85.3388877,35.8674295 C84.4774048,34.2812656 84.0470281,32.4823148 84.0470281,30.4698557 C84.0470281,29.9288721 84.0864185,29.3006098 84.1651993,28.5836262 C84.2432507,27.8688066 84.3205726,27.2196262 84.4000829,26.6389705 L88.8015966,1.16080656 L102.24248,1.16080656 L97.9576788,24.8977246 C97.8788979,25.2086098 97.8409664,25.5368066 97.8409664,25.8859213 L97.8409664,26.8142492 C97.8409664,28.0902492 98.2312233,29.2133311 99.0146548,30.1798885 C99.7966274,31.1471672 101.127148,31.6304459 103.005487,31.6304459 C104.217836,31.6304459 105.206244,31.4378557 105.969251,31.0505115 C106.732258,30.6646098 107.348645,30.1611344 107.817682,29.5415279 C108.288179,28.9233639 108.639775,28.2272984 108.874658,27.4518885 C109.109542,26.6786426 109.304305,25.9053967 109.461138,25.1307082 L113.862651,1.16080656 L127.069381,1.16080656 L122.549696,27.1619213 C122.119319,29.5992328 121.38549,31.8151016 120.348939,33.8073639" id="Fill-6" fill="#ff3004"></path>
        <polygon id="Fill-8" fill="#ff3004" points="152.776074 12.4779672 147.493382 42.251541 133.87743 42.251541 139.160122 12.4779672 128.653824 12.4779672 130.707231 1.16131148 164.984183 1.16131148 162.930046 12.4779672"></polygon>
        <polygon id="Fill-10" fill="#ff3004" points="161.580049 42.2518295 168.916878 1.16087869 196.091885 1.16087869 194.095375 12.3621246 179.715686 12.3621246 179.011036 16.3084197 192.745888 16.3084197 190.867549 26.7558951 177.133426 26.7558951 176.370419 31.0505836 192.451919 31.0505836 190.456868 42.2518295"></polygon>
        <polygon id="Fill-12" fill="#ff3004" points="202.90949 7.13189508 200.826175 7.13189508 200.826175 2.74343607 199.303079 2.74343607 199.303079 1.00363279 204.432586 1.00363279 204.432586 2.74343607 202.90949 2.74343607"></polygon>
        <polygon id="Fill-14" fill="#ff3004" points="206.918631 3.66974426 207.014919 7.13203934 205.071659 7.13203934 205.071659 1.00377705 207.796891 1.00377705 208.918789 4.30161311 208.962556 4.30161311 209.935645 1.00377705 212.748412 1.00377705 212.748412 7.13203934 210.717617 7.13203934 210.778891 3.68705574 210.726371 3.6784 209.570919 7.13203934 208.100343 7.13203934 206.962398 3.66974426"></polygon>
    </g>
</svg>